<?xml version="1.0" encoding="utf-8"?>
<!-- Generator: Adobe Illustrator 16.0.0, SVG Export Plug-In . SVG Version: 6.00 Build 0)  -->
<!DOCTYPE svg PUBLIC "-//W3C//DTD SVG 1.1//EN" "http://www.w3.org/Graphics/SVG/1.1/DTD/svg11.dtd">
<svg version="1.1" id="Layer_1" xmlns="http://www.w3.org/2000/svg" xmlns:xlink="http://www.w3.org/1999/xlink" x="0px" y="0px"
	 width="128px" height="128px" viewBox="0 0 128 128" enable-background="new 0 0 128 128" xml:space="preserve">
<g id="Pen">
	<path d="M123.315,16L112.003,4.688C108.878,1.563,104.78,0,100.687,0s-8.188,1.563-11.313,4.688l-68.69,68.687
		C17.563,76.499,8.004,88.585,8,92.679l-8,35.32l35.312-8c0,0,16.188-9.563,19.313-12.688l68.691-68.687
		C129.562,32.375,129.562,22.242,123.315,16z M32.316,112.476l-21.71,4.922l5.195-22.953c0.074-0.328,0.129-0.664,0.16-0.992
		c0.016-0.047,0.059-0.117,0.078-0.164l18.089,18.094C33.523,111.749,32.914,112.116,32.316,112.476z M48.984,101.64
		c-0.906,0.859-4.039,2.977-7.867,5.414L20.391,86.327c2.125-2.914,4.492-5.844,5.949-7.297l51.722-51.718l22.625,22.625
		L48.984,101.64z M117.659,32.969l-11.316,11.313L83.718,21.656l11.316-11.313C96.542,8.828,98.55,8,100.687,8
		s4.148,0.836,5.66,2.344l11.313,11.313c1.512,1.508,2.34,3.516,2.34,5.656C119.999,29.445,119.167,31.461,117.659,32.969z"
		fill="#1f1f1f"/>
</g>
</svg>