<?xml version="1.0" standalone="no"?>
<!DOCTYPE svg PUBLIC "-//W3C//DTD SVG 20010904//EN"
 "http://www.w3.org/TR/2001/REC-SVG-20010904/DTD/svg10.dtd">
<svg version="1.0" xmlns="http://www.w3.org/2000/svg"
 width="889.000000pt" height="1280.000000pt" viewBox="0 0 889.000000 1280.000000"
 preserveAspectRatio="xMidYMid meet">
<metadata>
Created by potrace 1.15, written by Peter Selinger 2001-2017
</metadata>
<g transform="translate(0.000000,1280.000000) scale(0.100000,-0.100000)"
fill="#000000" stroke="none">
<path d="M5540 12794 c-346 -43 -644 -202 -890 -475 -357 -397 -670 -891
-1069 -1689 -498 -999 -1011 -2278 -1536 -3830 l-62 -185 -204 -7 c-680 -22
-1130 -139 -1440 -372 -252 -190 -383 -426 -325 -587 9 -27 10 -55 3 -113 -13
-102 9 -224 57 -322 27 -55 56 -90 128 -160 176 -169 358 -264 718 -375 195
-59 538 -139 600 -139 11 0 20 -3 20 -6 0 -3 -22 -31 -50 -61 -60 -66 -77
-116 -56 -166 7 -19 24 -41 36 -50 l22 -16 -23 -33 c-12 -18 -106 -118 -209
-223 -102 -104 -211 -224 -242 -265 -158 -209 -245 -416 -292 -695 -36 -213
-46 -664 -15 -701 28 -34 69 -14 171 84 55 53 57 54 62 31 3 -13 19 -105 36
-204 41 -242 114 -566 151 -673 64 -178 170 -361 306 -525 78 -93 97 -106 124
-81 23 20 35 64 44 156 l7 66 37 -21 c20 -12 137 -121 261 -242 294 -288 417
-385 682 -538 149 -86 492 -257 516 -257 30 0 38 22 46 120 11 131 29 170 81
170 9 0 44 -25 78 -55 199 -178 455 -310 669 -345 240 -39 531 46 820 237 103
69 287 210 418 322 52 45 101 80 109 79 10 -2 22 -41 38 -128 26 -140 46 -195
81 -218 22 -15 25 -13 73 34 28 27 79 83 113 124 60 72 389 515 432 583 22 36
51 40 72 10 7 -10 32 -52 55 -93 48 -86 83 -109 116 -75 53 55 231 386 322
600 23 55 68 174 99 265 39 114 62 166 73 168 10 2 29 -14 49 -44 49 -71 88
-114 104 -114 92 0 114 804 34 1261 -62 359 -183 644 -334 788 -53 51 -48 64
22 59 69 -5 167 -47 230 -100 51 -41 102 -69 114 -62 73 46 -284 515 -530 697
l-64 47 54 0 c29 0 125 -7 213 -15 201 -19 307 -19 518 0 338 30 572 76 785
154 350 129 591 363 761 735 25 55 58 117 73 137 128 167 39 309 -231 364 -90
18 -93 18 -204 -32 -121 -54 -232 -73 -454 -80 -241 -7 -476 11 -858 67 -241
35 -671 112 -678 121 -2 2 -34 283 -71 624 -68 629 -124 1149 -356 3280 -71
655 -142 1301 -156 1437 -15 137 -24 251 -20 255 13 14 287 15 386 3 112 -14
225 -48 297 -90 29 -17 108 -72 175 -123 232 -176 351 -242 558 -311 125 -41
290 -86 290 -79 0 3 -42 80 -94 172 -51 91 -135 245 -186 341 -269 508 -425
741 -648 972 -118 122 -259 240 -342 286 -66 37 -215 88 -314 108 -72 14 -321
26 -386 18z"/>
</g>
</svg>
