<?xml version="1.0" ?><!DOCTYPE svg  PUBLIC '-//W3C//DTD SVG 1.1//EN'  'http://www.w3.org/Graphics/SVG/1.1/DTD/svg11.dtd'><svg enable-background="new 0 0 512 512" version="1.1" viewBox="0 0 512 512" xml:space="preserve" xmlns="http://www.w3.org/2000/svg" xmlns:xlink="http://www.w3.org/1999/xlink"><g id="Layer_1"/><g id="Layer_2"><g><path d="M332.9,236.5c-0.2-1.2-0.8-2.3-1.5-3.2l-31.6-38.8c7.2-11.6,11.1-25.8,11.1-40.5c0-37.3-25.1-67.6-55.9-67.6    S199,116.7,199,153.9c0,15.4,4.3,30.1,12.1,42l-30.4,37.3c-0.8,0.9-1.3,2.1-1.5,3.2l-36.6,180.2c-0.4,2.2,0.1,4.5,1.5,6.2    c1.4,1.7,3.6,2.8,5.8,2.8h212.2c0,0,0,0,0,0c4.1,0,7.5-3.4,7.5-7.5c0-0.7-0.1-1.4-0.3-2L332.9,236.5z M214,153.9    c0-29,18.4-52.6,40.9-52.6s40.9,23.6,40.9,52.6c0,10-2.2,19.7-6.3,28l-27.7-34c-1.4-1.7-3.6-2.8-5.8-2.8s-4.4,1-5.8,2.8l-29,35.6    C216.5,174.9,214,164.7,214,153.9z M159.1,410.6l34.4-169.4l32.8-40.2c0,0,0,0,0.1-0.1l29.7-36.4l24.6,30.2c-1,1.1-2.1,2-3.1,3    c-5-6.3-12.8-10.4-21.5-10.4c-15.1,0-27.5,12.3-27.5,27.5s12.3,27.5,27.5,27.5s27.5-12.3,27.5-27.5c0-0.9,0-1.7-0.1-2.6    c2.4-1.7,4.7-3.6,6.8-5.7l28.4,34.8l34.4,169.4H159.1z M254.3,214.7c0.6,3.6,3.8,6.2,7.4,6.2c0.4,0,0.9,0,1.3-0.1    c1.5-0.3,2.9-0.6,4.4-1c-1.9,4.4-6.3,7.4-11.4,7.4c-6.9,0-12.5-5.6-12.5-12.5c0-6.9,5.6-12.5,12.5-12.5c3,0,5.8,1.1,7.9,2.9    c-1.2,0.3-2.3,0.6-3.5,0.8C256.3,206.8,253.6,210.7,254.3,214.7z"/><path d="M227.5,282.4h57.1c4.1,0,7.5-3.4,7.5-7.5s-3.4-7.5-7.5-7.5h-57.1c-4.1,0-7.5,3.4-7.5,7.5S223.3,282.4,227.5,282.4z"/><path d="M228.3,341.6c13.3,0,24.2-10.9,24.2-24.2s-10.9-24.2-24.2-24.2s-24.2,10.9-24.2,24.2S215,341.6,228.3,341.6z M228.3,308.3    c5.1,0,9.2,4.1,9.2,9.2s-4.1,9.2-9.2,9.2s-9.2-4.1-9.2-9.2S223.3,308.3,228.3,308.3z"/><path d="M283.7,351.9c-13.3,0-24.2,10.9-24.2,24.2s10.9,24.2,24.2,24.2s24.2-10.9,24.2-24.2S297,351.9,283.7,351.9z M283.7,385.2    c-5.1,0-9.2-4.1-9.2-9.2s4.1-9.2,9.2-9.2s9.2,4.1,9.2,9.2S288.7,385.2,283.7,385.2z"/><path d="M298.6,302.2c-2.9-2.9-7.7-2.9-10.6,0l-74.6,74.6c-2.9,2.9-2.9,7.7,0,10.6c1.5,1.5,3.4,2.2,5.3,2.2s3.8-0.7,5.3-2.2    l74.6-74.6C301.5,309.8,301.5,305.1,298.6,302.2z"/></g></g></svg>